<?xml version="1.0" encoding="UTF-8" standalone="no"?>
<!--
  SPDX-FileCopyrightText: © 2018–2020, Hanna Knutsson <hanna.knutsson@protonmail.com>
  SPDX-FileCopyrightText: 🄯 2025, Peter J. Mello <admin@petermello.net>

  SPDX-License-Identifier: CC-BY-SA-4.0
-->
<!DOCTYPE svg PUBLIC "-//W3C//DTD SVG 1.1//EN"
  "http://www.w3.org/Graphics/SVG/1.1/DTD/svg11.dtd">
<svg color-interpolation="sRGB" color-rendering="optimizeSpeed"
  enable-background="new" height="48" id="qalculate-logo"
  preserveAspectRatio="xMidYMid slice" version="1.1" viewBox="0 0 48 48"
  width="48" xml:lang="en-US" xml:space="default"
  xmlns="http://www.w3.org/2000/svg" zoomAndPan="magnify">
 <title>Qalculate! icon</title>
 <desc>The Qalculate! desktop calculator software application icon</desc>
 <defs>
  <linearGradient id="qalc-a" x1="216" x2="216" y1="28" y2="284"
    gradientTransform="matrix(.2281 0 0 .2514 -10.67 -15.41)"
    gradientUnits="userSpaceOnUse">
   <stop stop-color="#d4279f" offset="0" />
   <stop stop-color="#fa3da3" offset="1" />
  </linearGradient>
  <linearGradient id="qalc-b" x1="38.31" x2="264" y1="270.7" y2="268"
    gradientTransform="matrix(0 .1955 -.1955 0 54.5 -5.914)"
    gradientUnits="userSpaceOnUse">
   <stop stop-color="#4d4d4d" offset="0" />
   <stop stop-color="#4d4d4d" offset="1" />
  </linearGradient>
  <linearGradient id="qalc-c" x1="152" x2="137.5" y1="156" y2="156"
    gradientTransform="matrix(.1584 0 0 .1955 2.216 -6.701)"
    gradientUnits="userSpaceOnUse">
   <stop stop-opacity="0" offset="0" />
   <stop stop-opacity=".1564" offset="1" />
  </linearGradient>
  <filter id="qalc-d" x="-.012" y="-.012" width="1.024" height="1.024"
    color-interpolation-filters="sRGB">
   <feGaussianBlur stdDeviation="1.1200135"/>
  </filter>
  <filter id="qalc-e" x="-.048" y="-.048" width="1.096" height="1.096"
    color-interpolation-filters="sRGB">
   <feGaussianBlur stdDeviation="4.4800539" />
  </filter>
 </defs>
 <g enable-background="accumulate">
  <path filter="url(#qalc-d)" opacity="0.1"
    d="m243.1-235.5c35.3 0 39.1 3.6 38.9 39v146c0.2 35.4-3.6 39-38.9 39h-146.2c-35.3 0-38.9-3.6-38.9-39v-146c0-35.4 3.6-39 38.9-39z" />
  <path filter="url(#qalc-e)" opacity="0.2"
    d="m243.1-235.5c35.3 0 39.1 3.6 38.9 39v146c0.2 35.4-3.6 39-38.9 39h-146.2c-35.3 0-38.9-3.6-38.9-39v-146c0-35.4 3.6-39 38.9-39z" />
 </g>
 <g stroke-width="0.75">
  <path enable-background="accumulate" fill="url(#qalc-b)"
    d="m9.68 1.93c-6.9 0-7.58 0.67-7.58 7.64v28.62c0 6.89 0.68 7.64 7.58 7.64h14.32v-43.83zm31.88 0.07c3.83 0.37 4.35 1.87 4.35 7.27 0-5.39-0.53-6.89-4.35-7.27zm4.35 36.33c0 5.39-0.53 6.89-4.35 7.27 3.83-0.37 4.35-1.87 4.35-7.27z" />
  <path fill="url(#qalc-a)" enable-background="new"
    d="m24 1.9v43.8h14.3c6.9 0 7.6-0.7 7.6-7.6v-28.6c0-6.9-0.7-7.6-7.6-7.6z" />
  <rect enable-background="new" fill="url(#qalc-c)" fill-rule="evenodd"
    height="43.4" width="2.297" x="24" y="2.295" />
  <path enable-background="new" fill="#fff" opacity="0.1"
    d="m2.1 23.8v14.3c-0 6.9 0.7 7.6 7.6 7.6h14.3v-21.9z" />
 </g>
 <g enable-background="new" fill="#f2f2f2" stroke-width="0.2px">
  <path d="m17.56 16.05c-0.19 0.21-0.31 0.35-0.52 0.64-0.54 0.71-0.83 0.94-1.11 0.94-0.33 0-0.54-0.31-0.71-0.97-0.07-0.26-0.07-0.31-0.09-0.38-0.59-2.41-0.85-3.5-0.85-3.85 1.06-1.84 1.89-2.86 2.32-2.86 0.14 0 0.35 0.07 0.57 0.19 0.28 0.17 0.45 0.21 0.66 0.21 0.47 0 0.8-0.35 0.8-0.85 0-0.52-0.4-0.87-0.97-0.87-1.04 0-1.91 0.85-3.57 3.38l-0.26-1.3c-0.33-1.61-0.59-2.08-1.23-2.08-0.54 0-1.3 0.19-2.76 0.69-0.14 0.05-0.14 0.05-0.26 0.09l0.09 0.35c0.93-0.23 1.09-0.25 1.33-0.25 0.59 0 0.73 0.21 1.06 1.63l0.69 2.91-1.94 2.76c-0.5 0.71-0.95 1.13-1.2 1.13-0.14 0-0.38-0.07-0.61-0.21-0.31-0.17-0.54-0.24-0.76-0.24-0.47 0-0.8 0.35-0.8 0.83 0 0.61 0.45 0.99 1.18 0.99s1.02-0.21 2.2-1.63c0.64-0.78 1.16-1.49 2.13-2.79l0.71 2.83c0.31 1.23 0.61 1.58 1.37 1.58 0.9 0 1.51-0.57 2.88-2.69z" />
  <path d="m7.2 37.35h0.31q0.03 0.59 0.35 0.83 0.32 0.23 1.01 0.23h2.28l-0.02-0.56q-1.32-0.27-2.42-1.48-1.09-1.21-1.09-3.05 0-2.05 1.52-3.49 1.53-1.45 3.98-1.45 2.38 0 3.89 1.37 1.51 1.36 1.51 3.49 0 1.73-0.94 2.94-0.94 1.2-2.54 1.67l-0.08 0.56h2.32q0.79 0 1.04-0.3 0.26-0.3 0.28-0.76h0.31v2.61h-4.68l0.22-2.52q2.16-0.68 2.16-3.98 0-2.16-1.06-3.32-1.05-1.15-2.47-1.15-1.51 0-2.51 1.23-0.99 1.22-0.99 3.12 0 1.38 0.44 2.51t1.7 1.59l0.16 2.52h-4.68z" />
 </g>
 <g enable-background="accumulate" stroke-width="0.75">
  <path fill="#fff" opacity="0.3"
    d="m9.7 1.9c-6.9 0-7.6 0.7-7.6 7.6v0.4c0-6.9 0.7-7.6 7.6-7.6h28.6c6.9 0 7.6 0.7 7.6 7.6v-0.4c0-6.9-0.7-7.6-7.6-7.6z" />
  <path opacity="0.2"
    d="m9.7 45.7c-6.9 0-7.6-0.7-7.6-7.6v-0.4c-0 6.9 0.7 7.6 7.6 7.6h28.6c6.9 0 7.6-0.7 7.6-7.6v0.4c0 6.9-0.7 7.6-7.6 7.6z" />
  <path fill="#fff"
    d="m29.5 19.7v2.1h10.8v-2.1zm0 6.2v2.1h10.8v-2.1z" />
 </g>
</svg>
